<?xml version="1.0" encoding="utf-8"?>
<!-- Generator: Adobe Illustrator 18.1.1, SVG Export Plug-In . SVG Version: 6.00 Build 0)  -->
<!DOCTYPE svg PUBLIC "-//W3C//DTD SVG 1.1//EN" "http://www.w3.org/Graphics/SVG/1.1/DTD/svg11.dtd">
<svg version="1.1" id="Layer_1" xmlns="http://www.w3.org/2000/svg" xmlns:xlink="http://www.w3.org/1999/xlink" x="0px" y="0px"
	 viewBox="0 0 500 500" enable-background="new 0 0 500 500" xml:space="preserve">
<path fill="#303030" d="M328.6,5.9c-88.7,0-161.4,69.7-165.9,157.1c-87.6,4.4-157.6,77-157.6,165.4c0,91.3,74.5,165.7,166.1,165.7
	l256,0.1l0.8-0.1c36.8,0,66.7-29.8,66.7-66.5v-10.7V171.5C494.8,80.2,420.3,5.9,328.6,5.9z M150,420.9c-34.4-8.9-61.6-35.8-70.7-70
	l-0.1-0.2c-0.9-3.9-1.3-6.2-1.6-10.1h1.6H150V420.9z M238,424h-63.5c-1.5,0-3,0-4.5-0.1V267.1H238V424z M329.7,424h-67.9V138.2h67.9
	V424z M422.4,409.7c0,8-6.3,14.4-14.1,14.4h-54.8V193.4h68.9V409.7z"/>
</svg>
